<svg fill="#000000" viewBox="0 0 25 25" id="bag" data-name="Flat Color" xmlns="http://www.w3.org/2000/svg" class="icon flat-color" stroke="#000000" stroke-width="0.4800000000000001"><g id="IconCartWhite" stroke-width="0"></g><g id="IconCartWhite" stroke-linecap="round" stroke-linejoin="round"></g><g id="IconCartWhite"><path id="primary" d="M19.07,8.85a2,2,0,0,0-2-1.85H6.93a2,2,0,0,0-2,1.85l-.84,11a2,2,0,0,0,.52,1.51A2,2,0,0,0,6.08,22H17.92a2,2,0,0,0,2-2.15Z" style="fill: #fefefe;"></path><path id="secondary" d="M15,12a1,1,0,0,1-1-1V6a2,2,0,0,0-4,0v5a1,1,0,0,1-2,0V6a4,4,0,0,1,8,0v5A1,1,0,0,1,15,12Z" style="fill: #030303;"></path></g></svg>