<svg id="Layer_1" data-name="Layer 1" xmlns="http://www.w3.org/2000/svg" viewBox="0 0 988.37 549.1"><defs><style>.cls-1{fill:#ffb3c7;}.cls-2{fill:#0a0b09;}</style></defs><title>klarna-logo</title><rect class="cls-1" width="988.37" height="549.1" rx="94.91"/><path class="cls-2" d="M901.81,547.13a23.51,23.51,0,0,0-23.42,23.59v0a23.5,23.5,0,0,0,23.37,23.63h0a23.64,23.64,0,0,0,0-47.27Zm-77-18.25c0-17.88-15.14-32.35-33.8-32.35s-33.81,14.5-33.81,32.35,15.16,32.33,33.83,32.33,33.78-14.47,33.78-32.33Zm.13-62.88h37.29V591.74H824.89v-8a65,65,0,0,1-37,11.51c-36.3,0-65.74-29.69-65.74-66.33s29.44-66.33,65.74-66.33a64.87,64.87,0,0,1,37,11.51ZM526.36,482.38V466h-38.2V591.74h38.28V533c0-19.81,21.27-30.44,36-30.44h.43V466C547.75,466,533.85,472.57,526.36,482.38Zm-95.15,46.5c0-17.88-15.13-32.35-33.8-32.35S363.6,511,363.6,528.88s15.16,32.33,33.83,32.33,33.78-14.47,33.78-32.33Zm.13-62.88h37.32V591.74H431.34v-8a65,65,0,0,1-37,11.51c-36.3,0-65.73-29.69-65.73-66.33s29.43-66.33,65.73-66.33a64.87,64.87,0,0,1,37,11.51Zm224.54-3.36c-14.89,0-29,4.66-38.44,17.53V466H580.3V591.74h37.6V525.68c0-19.11,12.7-28.49,28-28.49,16.38,0,25.83,9.88,25.83,28.22v66.33H709V511.79c0-29.25-23.07-49.15-53.11-49.15Zm-381.6,129.1h39.05V410H274.28Zm-171.54,0H144.1V410H102.76ZM247.39,410a145.29,145.29,0,0,1-42.3,103.21l57.15,78.63H211.18l-62.1-85.44,16-12.13A104.7,104.7,0,0,0,206.89,410h40.5Z" transform="translate(-5.81 -225.45)"/></svg>