<svg id="Layer_1" data-name="Layer 1" xmlns="http://www.w3.org/2000/svg" viewBox="0 0 1280 1109.33"><defs><style>.cls-1{fill:#fff;}</style></defs><path class="cls-1" d="M543.59,52.26c16.72,0,33.43,9.61,39.67,28.82l87.22,268.43a42.12,42.12,0,0,0,39.57,28.82l409.66,1-331,240.49a41.71,41.71,0,0,0-15.19,46.54l125.89,390.7H243.88a41.71,41.71,0,0,1-39.67-54.6L313.27,666.83a41.73,41.73,0,0,0-15.07-46.58L69.4,453.17c-32.59-23.8-15.75-75.4,24.6-75.4H376.49a41.71,41.71,0,0,0,39.64-28.72L504,81c6.27-19.15,22.95-28.72,39.63-28.72m-.78,514.08-.13-.38-.07.24.2.14M543.59,0c-41.36,0-76.41,25.4-89.29,64.71l-85.45,260.8H94A94,94,0,0,0,38.58,495.37L261.21,658,154.51,986.32a94,94,0,0,0,89.37,123H971.14l-22-68.29L825.6,657.61l324.82-236L1280,327.47l-160.16-.39-402-1L633,64.93A93.73,93.73,0,0,0,543.59,0Z"/></svg>